<svg width="48" height="48" viewBox="0 0 48 48" fill="none" xmlns="http://www.w3.org/2000/svg">
<rect width="48" height="48" fill="transparent"/>
<path d="M28.62 2L28.488 2.27021C33.064 4.29683 35.66 8.48516 35.66 13.0788C35.66 18.0328 32.492 22.5363 26.332 26.3644L25.32 26.9949C20.7 29.8772 18.368 33.1198 18.368 37.0379C18.368 42.0819 22.24 45.7748 27.564 45.7748C36.1 45.7748 46 36.4524 46 24.0225C46 21.9959 45.736 20.0143 45.252 18.1228L44.944 18.2129C45.076 19.2487 45.12 20.0143 45.12 20.7349C45.12 28.0757 41.072 34.3808 34.296 38.5691L33.636 38.9744C32.184 39.8301 30.952 40.3255 29.72 40.3255C28.092 40.3255 26.86 39.2446 26.86 37.6684C26.86 36.3173 27.74 34.9662 30.6 33.2549L31.436 32.7595C37.772 28.9765 41.292 23.6622 41.292 17.7625C41.292 10.2866 35.836 4.11668 28.62 2ZM19.38 46L19.512 45.7298C14.936 43.7032 12.34 39.5148 12.34 34.9212C12.34 29.9672 15.508 25.4637 21.668 21.6356L22.68 21.0051C27.3 18.1228 29.632 14.8802 29.632 10.9621C29.632 5.91812 25.76 2.22518 20.436 2.22518C11.9 2.22518 2 11.5476 2 23.9775C2 26.0041 2.264 27.9857 2.748 29.8772L3.056 29.7871C2.924 28.7513 2.88 27.9857 2.88 27.2651C2.88 19.9243 6.928 13.6192 13.704 9.43091L14.364 9.02559C15.816 8.16991 17.048 7.67451 18.28 7.67451C19.908 7.67451 21.14 8.75537 21.14 10.3316C21.14 11.6827 20.26 13.0338 17.4 14.7451L16.564 15.2405C10.228 19.0235 6.708 24.3378 6.708 30.2375C6.708 37.7134 12.164 43.8833 19.38 46Z" fill="#4D3DFF"/>
</svg>
